<?xml version="1.0" encoding="UTF-8"?>
<svg xmlns="http://www.w3.org/2000/svg" version="1.1" viewBox="0 0 32 32">
  <defs>
    <style>
      .cls-1 {
        fill: #fff;
      }

      .cls-2 {
        fill: #3294f8;
      }
    </style>
  </defs>
  <!-- Generator: Adobe Illustrator 28.7.1, SVG Export Plug-In . SVG Version: 1.2.0 Build 142)  -->
  <g>
    <g id="Layer_1">
      <g>
        <rect class="cls-2" width="32" height="32" rx="10" ry="10"/>
        <g id="n">
          <g>
            <path class="cls-1" d="M25.6,6.9c0-.3-.3-.5-.5-.5-3-.8-6.1,0-7.9,2h-7.3c-2.1,0-3.8,1.7-3.8,3.8v10c0,2.1,1.7,3.8,3.8,3.8h10c2.1,0,3.8-1.7,3.8-3.8v-3c0-.4-.3-.8-.8-.8s-.8.3-.8.8v3c0,1.2-1,2.2-2.2,2.2h-10c-1.2,0-2.2-1-2.2-2.2v-10c0-1.2,1-2.2,2.2-2.2h6.3c-.9,2-.5,4-.2,5.1l-2.7,2.7c-.3.3-.3.8,0,1.1.1.1.3.2.5.2s.4,0,.5-.2l2.7-2.7c.6.2,1.5.4,2.4.4s1.8-.2,2.7-.6c2.9-1.4,4.4-5.2,3.4-8.9h0ZM18.3,14.8l2.1-2.1c.3-.3.3-.8,0-1.1s-.8-.3-1.1,0l-2.1,2.1c-.2-.9-.2-2.1.3-3.2,1.1-2.2,3.9-3.3,6.7-2.7.6,2.8-.5,5.6-2.7,6.7-1.2.6-2.4.5-3.2.3Z"/>
            <path class="cls-1" d="M18.9,20.4h-8c-.4,0-.8.3-.8.8s.3.8.8.8h8c.4,0,.8-.3.8-.8s-.3-.8-.8-.8Z"/>
          </g>
        </g>
      </g>
    </g>
  </g>
</svg>